<svg width="1080" height="1080" viewBox="0 0 1080 1080" fill="none" xmlns="http://www.w3.org/2000/svg">
<line x1="988.5" y1="2.7038e-08" x2="988.5" y2="1080" stroke="#404040"/>
<line x1="476.5" y1="2.7038e-08" x2="476.5" y2="1080" stroke="#404040"/>
<line x1="220.5" y1="2.7038e-08" x2="220.5" y2="1080" stroke="#404040"/>
<line x1="732.5" y1="2.7038e-08" x2="732.5" y2="1080" stroke="#404040"/>
<line x1="92.5" y1="2.7038e-08" x2="92.5" y2="1080" stroke="#404040"/>
<line x1="604.5" y1="2.7038e-08" x2="604.5" y2="1080" stroke="#404040"/>
<line x1="348.5" y1="2.7038e-08" x2="348.5" y2="1080" stroke="#404040"/>
<line x1="860.5" y1="2.7038e-08" x2="860.5" y2="1080" stroke="#404040"/>
<line x1="924.5" y1="2.7038e-08" x2="924.5" y2="1080" stroke="#404040"/>
<line x1="412.5" y1="2.7038e-08" x2="412.5" y2="1080" stroke="#404040"/>
<line x1="156.5" y1="2.7038e-08" x2="156.5" y2="1080" stroke="#404040"/>
<line x1="668.5" y1="2.7038e-08" x2="668.5" y2="1080" stroke="#404040"/>
<line x1="1052.5" y1="2.7038e-08" x2="1052.5" y2="1080" stroke="#404040"/>
<line x1="28.5" y1="2.7038e-08" x2="28.5" y2="1080" stroke="#404040"/>
<line x1="540.5" y1="2.7038e-08" x2="540.5" y2="1080" stroke="#404040"/>
<line x1="284.5" y1="2.7038e-08" x2="284.5" y2="1080" stroke="#404040"/>
<line x1="796.5" y1="2.7038e-08" x2="796.5" y2="1080" stroke="#404040"/>
<line x1="1080" y1="924.5" x2="-4.88938e-08" y2="924.5" stroke="#404040"/>
<line x1="1080" y1="412.5" x2="-4.88938e-08" y2="412.5" stroke="#404040"/>
<line x1="1080" y1="220.5" x2="-4.88938e-08" y2="220.5" stroke="#404040"/>
<line x1="1080" y1="668.5" x2="-4.88938e-08" y2="668.5" stroke="#404040"/>
<line x1="1080" y1="1052.5" x2="-4.88938e-08" y2="1052.5" stroke="#404040"/>
<line x1="1080" y1="92.5" x2="-4.88938e-08" y2="92.4999" stroke="#404040"/>
<line x1="1080" y1="540.5" x2="-4.88938e-08" y2="540.5" stroke="#404040"/>
<line x1="1080" y1="348.5" x2="-4.88938e-08" y2="348.5" stroke="#404040"/>
<line x1="1080" y1="796.5" x2="-4.88938e-08" y2="796.5" stroke="#404040"/>
<line x1="1080" y1="860.5" x2="-4.88938e-08" y2="860.5" stroke="#404040"/>
<line x1="1080" y1="156.5" x2="-4.88938e-08" y2="156.5" stroke="#404040"/>
<line x1="1080" y1="604.5" x2="-4.88938e-08" y2="604.5" stroke="#404040"/>
<line x1="1080" y1="988.5" x2="-4.88938e-08" y2="988.5" stroke="#404040"/>
<line x1="1080" y1="28.5" x2="-4.88938e-08" y2="28.4999" stroke="#404040"/>
<line x1="1080" y1="476.5" x2="-4.88938e-08" y2="476.5" stroke="#404040"/>
<line x1="1080" y1="284.5" x2="-4.88938e-08" y2="284.5" stroke="#404040"/>
<line x1="1080" y1="732.5" x2="-4.88938e-08" y2="732.5" stroke="#404040"/>
</svg>
